<svg width="2292" height="1937" xmlns="http://www.w3.org/2000/svg" xmlns:xlink="http://www.w3.org/1999/xlink" overflow="hidden"><defs><clipPath id="clip0"><rect x="442" y="144" width="2292" height="1937"/></clipPath></defs><g clip-path="url(#clip0)" transform="translate(-442 -144)"><path d="M447 1485.56C447 1467.03 462.027 1452 480.563 1452L1220.44 1452C1238.97 1452 1254 1467.03 1254 1485.56L1254 1702.44C1254 1720.97 1238.97 1736 1220.44 1736L480.563 1736C462.027 1736 447 1720.97 447 1702.44Z" stroke="#404040" stroke-width="10.3125" stroke-miterlimit="8" stroke-dasharray="41.25 30.9375" fill="#FBFBFB" fill-rule="evenodd"/><text font-family="Times New Roman,Times New Roman_MSFontService,sans-serif" font-weight="400" font-size="83" transform="matrix(1 0 0 1 591.616 1575)">Post-Activation <tspan font-size="83" x="-60.7291" y="97">Backward Memory</tspan></text><path d="M447 979.563C447 961.027 462.027 946 480.563 946L1220.44 946C1238.97 946 1254 961.027 1254 979.563L1254 1196.44C1254 1214.97 1238.97 1230 1220.44 1230L480.563 1230C462.027 1230 447 1214.97 447 1196.44Z" stroke="#404040" stroke-width="10.3125" stroke-miterlimit="8" fill="#FBFBFB" fill-rule="evenodd"/><text font-family="Times New Roman,Times New Roman_MSFontService,sans-serif" font-weight="400" font-size="83" transform="matrix(1 0 0 1 498.803 1069)">Threshold <tspan font-size="83" x="355.208" y="0">Activation</tspan><tspan font-size="83" x="278.438" y="99">Unit</tspan></text><path d="M447 473.563C447 455.027 462.027 440 480.563 440L1220.44 440C1238.97 440 1254 455.027 1254 473.563L1254 690.437C1254 708.973 1238.97 724 1220.44 724L480.563 724C462.027 724 447 708.973 447 690.437Z" stroke="#404040" stroke-width="10.3125" stroke-miterlimit="8" fill="#FBFBFB" fill-rule="evenodd"/><text font-family="Times New Roman,Times New Roman_MSFontService,sans-serif" font-weight="400" font-size="83" transform="matrix(1 0 0 1 607.657 563)">Pre<tspan font-size="83" x="110" y="0">-</tspan>Activation <tspan font-size="83" x="-49.2708" y="99">Forward Memory</tspan><tspan font-weight="700" font-size="92" x="705.685" y="-287">Dual</tspan><tspan font-weight="700" font-size="92" x="894.174" y="-287">-</tspan><tspan font-weight="700" font-size="92" x="924.539" y="-287">Perspective Activation </tspan><tspan font-weight="700" font-size="92" x="1128.77" y="-177">(DPA)</tspan></text><path d="M801.156 1237 801.157 1415.52 790.844 1415.52 790.844 1237ZM796 1415.52 821.782 1394.89 796 1446.46 770.219 1394.89Z" fill="#4472C4"/><path d="M5.15625-8.88425e-06 5.15632 41.25-5.15618 41.25-5.15625 8.88425e-06ZM5.15637 72.1875 5.15645 113.437-5.15605 113.438-5.15613 72.1875ZM5.1565 144.375 5.15656 178.518-5.15594 178.518-5.156 144.375ZM0.000307587 178.518 25.7815 157.893 0.000360892 209.455-25.781 157.893Z" fill="#4472C4" transform="matrix(1 0 0 -1 905 1446.46)"/><path d="M1254.01 576.844 1483.77 577.136 1483.76 587.448 1253.99 587.156ZM1478.64 556.504 1530.17 582.351 1478.58 608.067Z" fill="#D60000"/><text font-family="Times New Roman,Times New Roman_MSFontService,sans-serif" font-weight="400" font-size="83" transform="matrix(1 0 0 1 2261.85 1018)">J<tspan font-size="83" x="32.0833" y="0">oint </tspan><tspan font-size="83" x="-240.625" y="99">F</tspan><tspan font-size="83" x="-194.792" y="99">orward</tspan><tspan font-size="83" x="38.9583" y="99">-</tspan><tspan font-size="83" x="66.4583" y="99">B</tspan><tspan font-size="83" x="121.458" y="99">ackward </tspan><tspan font-size="83" x="-68.75" y="198">C</tspan><tspan font-size="83" x="-13.75" y="198">riterion</tspan><tspan font-size="83" x="-698.248" y="-406">F</tspan><tspan font-size="83" x="-652.414" y="-406">orward </tspan>C<tspan font-size="83" x="-343.039" y="-406">riterion</tspan><tspan font-size="83" x="-698.248" y="606">Backward</tspan><tspan font-size="83" x="-343.04" y="606">C</tspan>riterion</text><path d="M1254.01 1588.84 1483.77 1589.24 1483.76 1599.55 1253.99 1599.16ZM1478.65 1568.6 1530.17 1594.47 1478.56 1620.16Z" fill="#D60000"/><path d="M1901.7 644.61 2304.96 893.097 2299.55 901.876 1896.29 653.39ZM2311.39 872.833 2341.76 921.831 2284.34 916.73Z" fill="#D60000"/><path d="M2.70404-4.39034 405.956 243.975 400.547 252.756-2.70404 4.39034ZM412.381 223.709 442.764 272.701 385.341 267.613Z" fill="#D60000" transform="matrix(1 0 0 -1 1899 1527.7)"/><path d="M1973.43 1099.29 1306.05 1098.85 1306.07 1078.22 1973.44 1078.66ZM1316.35 1119.48 1254.5 1088.5 1316.4 1057.6Z" fill="#D60000"/><path d="M1319 1820.98C1319 1799.45 1336.45 1782 1357.98 1782L2359.02 1782C2380.55 1782 2398 1799.45 2398 1820.98L2398 1991.02C2398 2012.55 2380.55 2030 2359.02 2030L1357.98 2030C1336.45 2030 1319 2012.55 1319 1991.02Z" fill="#EDEDED" fill-rule="evenodd"/><path d="M1393 1849.99 1599.36 1849.99 1599.36 1858.01 1393 1858.01ZM1599.36 1854 1581.03 1831.08 1626.86 1854 1581.03 1876.92Z" fill="#4472C4"/><path d="M1393 1953.99 1425.08 1953.99 1425.08 1962.01 1393 1962.01ZM1449.15 1953.99 1481.23 1953.99 1481.23 1962.01 1449.15 1962.01ZM1505.29 1953.99 1537.37 1953.99 1537.37 1962.01 1505.29 1962.01ZM1561.44 1953.99 1593.52 1953.99 1593.52 1962.01 1561.44 1962.01ZM1599.36 1958 1581.03 1935.08 1626.86 1958 1581.03 1980.92Z" fill="#4472C4"/><text font-family="Times New Roman,Times New Roman_MSFontService,sans-serif" font-weight="400" font-size="73" transform="matrix(1 0 0 1 1670.28 1880)">Forward Propagation<tspan font-size="73" x="0" y="105">Backward Propagation</tspan></text><path d="M801.156 730 801.157 908.518 790.844 908.518 790.844 730ZM796 908.518 821.782 887.893 796 939.455 770.219 887.893Z" fill="#4472C4"/><path d="M5.15625-8.88425e-06 5.15632 41.25-5.15618 41.25-5.15625 8.88425e-06ZM5.15637 72.1875 5.15645 113.437-5.15605 113.438-5.15613 72.1875ZM5.1565 144.375 5.15656 178.518-5.15594 178.518-5.156 144.375ZM0.000307587 178.518 25.7815 157.893 0.000360892 209.455-25.781 157.893Z" fill="#4472C4" transform="matrix(1 0 0 -1 905 939.455)"/><path d="M801.156 195 801.157 403.268 790.844 403.268 790.844 195ZM796 403.268 821.782 382.643 796 434.206 770.219 382.643Z" fill="#4472C4"/><path d="M5.15625-7.77928e-06 5.15631 41.25-5.15619 41.25-5.15625 7.77928e-06ZM5.15636 72.1875 5.15642 113.437-5.15608 113.438-5.15614 72.1875ZM5.15647 144.375 5.15653 185.625-5.15597 185.625-5.15603 144.375ZM0.000314217 208.268 25.7815 187.643 0.000360892 239.206-25.781 187.644Z" fill="#4472C4" transform="matrix(1 0 0 -1 905 434.206)"/><path d="M801.156 1742 801.157 1999.37 790.844 1999.37 790.844 1742ZM796 1999.37 821.782 1978.75 796 2030.31 770.219 1978.75Z" fill="#4472C4"/><path d="M5.15625-6.45432e-06 5.1563 41.25-5.1562 41.25-5.15625 6.45432e-06ZM5.15634 72.1875 5.15639 113.437-5.15611 113.438-5.15616 72.1875ZM5.15643 144.375 5.15648 185.625-5.15602 185.625-5.15607 144.375ZM5.15652 216.562 5.15657 257.374-5.15593 257.374-5.15598 216.562ZM0.000322167 257.374 25.7815 236.749 0.000360892 288.311-25.781 236.749Z" fill="#4472C4" transform="matrix(1 0 0 -1 905 2030.31)"/><text fill="#D60000" font-family="Times New Roman,Times New Roman_MSFontService,sans-serif" font-weight="400" font-size="83" transform="matrix(1 0 0 1 1532.05 1040)">Online<tspan font-size="83" x="-205.104" y="155">Channel Denoising</tspan></text></g></svg>